<?xml version="1.0" encoding="UTF-8" standalone="no"?>
<!-- Created with Inkscape (http://www.inkscape.org/) -->

<svg
   xmlns:dc="http://purl.org/dc/elements/1.1/"
   xmlns:cc="http://creativecommons.org/ns#"
   xmlns:rdf="http://www.w3.org/1999/02/22-rdf-syntax-ns#"
   xmlns:svg="http://www.w3.org/2000/svg"
   xmlns="http://www.w3.org/2000/svg"
   xmlns:sodipodi="http://sodipodi.sourceforge.net/DTD/sodipodi-0.dtd"
   xmlns:inkscape="http://www.inkscape.org/namespaces/inkscape"
   width="701.14374"
   height="666.26874"
   id="svg5194"
   version="1.1"
   inkscape:version="0.48.0 r9654"
   sodipodi:docname="dino_stamp.svg"
   inkscape:export-filename="/Users/scsibug/Documents/WorkingRepository/fermata-site/img/stamp.png"
   inkscape:export-xdpi="12.1936"
   inkscape:export-ydpi="12.1936">
  <metadata
     id="metadata27">
    <rdf:RDF>
      <cc:Work
         rdf:about="">
        <dc:format>image/svg+xml</dc:format>
        <dc:type
           rdf:resource="http://purl.org/dc/dcmitype/StillImage" />
        <dc:title></dc:title>
        <cc:license
           rdf:resource="http://creativecommons.org/licenses/publicdomain/" />
      </cc:Work>
      <cc:License
         rdf:about="http://creativecommons.org/licenses/publicdomain/">
        <cc:permits
           rdf:resource="http://creativecommons.org/ns#Reproduction" />
        <cc:permits
           rdf:resource="http://creativecommons.org/ns#Distribution" />
        <cc:permits
           rdf:resource="http://creativecommons.org/ns#DerivativeWorks" />
      </cc:License>
    </rdf:RDF>
  </metadata>
  <sodipodi:namedview
     pagecolor="#ffffff"
     bordercolor="#666666"
     borderopacity="1"
     objecttolerance="10"
     gridtolerance="10"
     guidetolerance="10"
     inkscape:pageopacity="0"
     inkscape:pageshadow="2"
     inkscape:window-width="1105"
     inkscape:window-height="749"
     id="namedview25"
     showgrid="false"
     inkscape:zoom="0.35355339"
     inkscape:cx="672.63138"
     inkscape:cy="351.95839"
     inkscape:window-x="291"
     inkscape:window-y="0"
     inkscape:window-maximized="0"
     inkscape:current-layer="g6421" />
  <defs
     id="defs3">
    <marker
       inkscape:stockid="DotS"
       orient="auto"
       refY="0"
       refX="0"
       id="DotS"
       style="overflow:visible">
      <path
         id="path3702"
         d="m -2.5,-1 c 0,2.76 -2.24,5 -5,5 -2.76,0 -5,-2.24 -5,-5 0,-2.76 2.24,-5 5,-5 2.76,0 5,2.24 5,5 z"
         style="fill-rule:evenodd;stroke:#000000;stroke-width:1pt;marker-start:none;marker-end:none"
         transform="matrix(0.2,0,0,0.2,1.48,0.2)" />
    </marker>
    <marker
       inkscape:stockid="Arrow1Lstart"
       orient="auto"
       refY="0"
       refX="0"
       id="Arrow1Lstart"
       style="overflow:visible">
      <path
         id="path3634"
         d="M 0,0 5,-5 -12.5,0 5,5 0,0 z"
         style="fill-rule:evenodd;stroke:#000000;stroke-width:1pt;marker-start:none"
         transform="matrix(0.8,0,0,0.8,10,0)" />
    </marker>
    <filter
       id="filter6368"
       inkscape:label="Desaturate"
       x="0"
       y="0"
       width="1"
       height="1"
       inkscape:menu="Color"
       inkscape:menu-tooltip="Render in shades of gray by reducing saturation to zero"
       color-interpolation-filters="sRGB">
      <feColorMatrix
         id="feColorMatrix6370"
         type="saturate"
         values="0" />
    </filter>
  </defs>
  <g
     id="g6421"
     transform="translate(-113.44495,-22.89189)">
    <path
       inkscape:connector-curvature="0"
       style="opacity:0.4;fill:#0082ca;fill-opacity:0.1022364;fill-rule:nonzero;stroke:#000000;stroke-width:1.79999995;stroke-linecap:butt;stroke-linejoin:miter;stroke-miterlimit:4;stroke-opacity:1;stroke-dasharray:none;stroke-dashoffset:0;marker:none;visibility:visible;display:inline;overflow:visible"
       id="path6076"
       d="m 813.6887,37.94814 c -0.39139,0.0377 -0.78632,0.0625 -1.1875,0.0625 -6.75578,0 -12.24999,-5.46297 -12.25,-12.21875 0,-0.68258 0.0797,-1.34755 0.1875,-2 l -12.40625,0 c 0.10781,0.65245 0.1875,1.31742 0.1875,2 -1e-5,6.75578 -5.49421,12.21875 -12.25,12.21875 -6.75579,0 -12.21874,-5.46297 -12.21875,-12.21875 0,-0.68258 0.0803,-1.34755 0.1875,-2 l -12.40625,0 c 0.10781,0.65245 0.1875,1.31742 0.1875,2 -1e-5,6.75578 -5.49421,12.21875 -12.25,12.21875 -6.75579,0 -12.24999,-5.46297 -12.25,-12.21875 0,-0.68258 0.0797,-1.34755 0.1875,-2 l -12.40625,0 c 0.10781,0.65245 0.1875,1.31742 0.1875,2 -2e-5,6.75578 -5.49421,12.21875 -12.25,12.21875 -6.75578,0 -12.21874,-5.46297 -12.21875,-12.21875 0,-0.68258 0.0803,-1.34755 0.1875,-2 l -12.4375,0 c 0.10723,0.65245 0.1875,1.31742 0.1875,2 10e-6,6.75578 -5.46296,12.21875 -12.21875,12.21875 -6.75575,0 -12.24999,-5.46297 -12.25,-12.21875 0,-0.68258 0.0797,-1.34755 0.1875,-2 l -12.40625,0 c 0.10781,0.65245 0.1875,1.31742 0.1875,2 10e-6,6.75578 -5.49421,12.21875 -12.25,12.21875 -6.75575,0 -12.24999,-5.46297 -12.25,-12.21875 0,-0.68258 0.0797,-1.34755 0.1875,-2 l -12.40625,0 c 0.10723,0.65245 0.1875,1.31742 0.1875,2 2e-5,6.75578 -5.46296,12.21875 -12.21875,12.21875 -6.75578,0 -12.24999,-5.46297 -12.25,-12.21875 0,-0.68258 0.0797,-1.34755 0.1875,-2 l -12.40625,0 c 0.10781,0.65245 0.1875,1.31742 0.1875,2 10e-6,6.75578 -5.49421,12.21875 -12.25,12.21875 -6.75575,0 -12.24999,-5.46297 -12.25,-12.21875 0,-0.68258 0.0797,-1.34755 0.1875,-2 l -12.40625,0 c 0.10781,0.65245 0.1875,1.31742 0.1875,2 10e-6,6.75578 -5.49421,12.21875 -12.25,12.21875 -6.75576,0 -12.21874,-5.46297 -12.21875,-12.21875 0,-0.68258 0.0803,-1.34755 0.1875,-2 l -12.4375,0 c 0.10723,0.65245 0.1875,1.31742 0.1875,2 1e-5,6.75578 -5.46299,12.21875 -12.21875,12.21875 -6.75576,0 -12.25002,-5.46297 -12.25,-12.21875 0,-0.68258 0.0797,-1.34755 0.1875,-2 l -12.40625,0 c 0.10781,0.65245 0.1875,1.31742 0.1875,2 -10e-6,6.75578 -5.49424,12.21875 -12.25,12.21875 -6.75575,0 -12.21877,-5.46297 -12.21875,-12.21875 0,-0.68258 0.0803,-1.34755 0.1875,-2 l -12.4375,0 c 0.10723,0.65245 0.1875,1.31742 0.1875,2 1e-5,6.75578 -5.46299,12.21875 -12.21875,12.21875 -6.75579,0 -12.25002,-5.46297 -12.25,-12.21875 0,-0.68258 0.0797,-1.34755 0.1875,-2 l -12.40625,0 c 0.10781,0.65245 0.1875,1.31742 0.1875,2 1e-5,6.75578 -5.49424,12.21875 -12.25,12.21875 -6.75579,0 -12.25002,-5.46297 -12.25,-12.21875 0,-0.68258 0.0797,-1.34755 0.1875,-2 l -12.40625,0 c 0.10781,0.65245 0.1875,1.31742 0.1875,2 -10e-6,6.75578 -5.49424,12.21875 -12.25,12.21875 -6.75575,0 -12.21877,-5.46297 -12.21875,-12.21875 0,-0.68258 0.0803,-1.34755 0.1875,-2 l -12.40625,0 c 0.10781,0.65245 0.1875,1.31742 0.1875,2 -2e-5,6.75578 -5.49424,12.21875 -12.25,12.21875 -6.75576,0 -12.25002,-5.46297 -12.25,-12.21875 0,-0.68258 0.0797,-1.34755 0.1875,-2 l -12.40625,0 c 0.10781,0.65245 0.1875,1.31742 0.1875,2 2e-5,6.75578 -5.49424,12.21875 -12.25,12.21875 -6.75578,0 -12.21877,-5.46297 -12.21875,-12.21875 0,-0.68258 0.0803,-1.34755 0.1875,-2 l -12.4375,0 c 0.10723,0.65245 0.1875,1.31742 0.1875,2 10e-6,6.75578 -5.46299,12.21875 -12.21875,12.21875 -6.75579,0 -12.25002,-5.46297 -12.25,-12.21875 0,-0.68258 0.0797,-1.34755 0.1875,-2 l -12.40625,0 c 0.10781,0.65245 0.1875,1.31742 0.1875,2 -1e-5,6.75578 -5.49424,12.21875 -12.25,12.21875 -6.75575,0 -12.25002,-5.46297 -12.25,-12.21875 0,-0.68258 0.0797,-1.34755 0.1875,-2 l -12.40625,0 c 0.10723,0.65245 0.1875,1.31742 0.1875,2 -1e-5,6.75578 -5.46299,12.21875 -12.21875,12.21875 -6.75575,0 -12.25002,-5.46297 -12.25,-12.21875 0,-0.68258 0.0797,-1.34755 0.1875,-2 l -14.375,0 c 0.10781,0.65245 0.1875,1.31742 0.1875,2 4e-5,6.39672 -4.93016,11.61567 -11.1875,12.15625 -0.38049,0.0387 -0.76632,0.0595 -1.15625,0.0625 -0.38994,-0.003 -0.77577,-0.0238 -1.15625,-0.0625 -0.37032,-0.032 -0.73368,-0.0922 -1.09375,-0.15625 l 0,12.5 c 0.75807,-0.14648 1.54321,-0.21875 2.34375,-0.21875 6.7558,0 12.24998,5.46297 12.25,12.21875 4e-5,6.75578 -5.49424,12.25 -12.25,12.25 -0.80054,0 -1.58568,-0.0715 -2.34375,-0.21875 l 0,12.46875 c 0.75807,-0.14725 1.54321,-0.21875 2.34375,-0.21875 6.7558,0 12.24998,5.49422 12.25,12.25 4e-5,6.75578 -5.49424,12.21875 -12.25,12.21875 -0.80054,0 -1.58568,-0.0723 -2.34375,-0.21875 l 0,12.5 c 0.75807,-0.14648 1.54321,-0.21875 2.34375,-0.21875 6.7558,1e-5 12.24998,5.46298 12.25,12.21875 4e-5,6.75579 -5.49424,12.25001 -12.25,12.25 -0.80054,0 -1.58568,-0.0715 -2.34375,-0.21875 l 0,12.46875 c 0.75807,-0.14725 1.54321,-0.21875 2.34375,-0.21875 6.7558,1e-5 12.24998,5.49423 12.25,12.25 4e-5,6.75579 -5.49424,12.25001 -12.25,12.25 -0.80054,0 -1.58568,-0.0715 -2.34375,-0.21875 l 0,12.46875 c 0.75807,-0.14648 1.54321,-0.21875 2.34375,-0.21875 6.7558,1e-5 12.24998,5.46298 12.25,12.21875 4e-5,6.75579 -5.49424,12.25001 -12.25,12.25 -0.80054,0 -1.58568,-0.0715 -2.34375,-0.21875 l 0,12.46875 c 0.75807,-0.14725 1.54321,-0.21875 2.34375,-0.21875 6.7558,1e-5 12.24998,5.49423 12.25,12.25 4e-5,6.75579 -5.49424,12.25001 -12.25,12.25 -0.80054,0 -1.58568,-0.0715 -2.34375,-0.21875 l 0,12.46875 c 0.75807,-0.14725 1.54321,-0.21875 2.34375,-0.21875 6.7558,2e-5 12.24998,5.49423 12.25,12.25 4e-5,6.75579 -5.49424,12.21876 -12.25,12.21875 -0.80054,0 -1.58568,-0.0723 -2.34375,-0.21875 l 0,12.5 c 0.75807,-0.14648 1.54321,-0.21875 2.34375,-0.21875 6.7558,2e-5 12.24998,5.46298 12.25,12.21875 4e-5,6.75579 -5.49424,12.25001 -12.25,12.25 -0.80054,0 -1.58568,-0.0715 -2.34375,-0.21875 l 0,12.46875 c 0.75807,-0.14725 1.54321,-0.21875 2.34375,-0.21875 6.7558,10e-6 12.24998,5.49423 12.25,12.25 4e-5,6.75578 -5.49424,12.21876 -12.25,12.21875 -0.80054,0 -1.58568,-0.0723 -2.34375,-0.21875 l 0,12.5 c 0.75807,-0.14648 1.54321,-0.21875 2.34375,-0.21875 6.7558,2e-5 12.24998,5.46298 12.25,12.21875 4e-5,6.75579 -5.49424,12.25001 -12.25,12.25 -0.80054,0 -1.58568,-0.0715 -2.34375,-0.21875 l 0,12.46875 c 0.75807,-0.14725 1.54321,-0.21875 2.34375,-0.21875 6.7558,2e-5 12.24998,5.49423 12.25,12.25 4e-5,6.75579 -5.49424,12.25001 -12.25,12.25 -0.80054,0 -1.58568,-0.0715 -2.34375,-0.21875 l 0,12.46875 c 0.75807,-0.14725 1.54321,-0.21875 2.34375,-0.21875 6.7558,10e-6 12.24998,5.49423 12.25,12.25 4e-5,6.75578 -5.49424,12.21876 -12.25,12.21875 -0.80054,0 -1.58568,-0.0723 -2.34375,-0.21875 l 0,12.5 c 0.75807,-0.14648 1.54321,-0.21875 2.34375,-0.21875 6.7558,-1e-5 12.24998,5.46298 12.25,12.21875 4e-5,6.75573 -5.49424,12.24998 -12.25,12.25 -0.80054,0 -1.58568,-0.0715 -2.34375,-0.21875 l 0,12.46875 c 0.75807,-0.14725 1.54321,-0.21875 2.34375,-0.21875 6.7558,-5e-5 12.24998,5.4942 12.25,12.25 4e-5,6.75575 -5.49424,12.21873 -12.25,12.21875 -0.80054,0 -1.58568,-0.0723 -2.34375,-0.21875 l 0,12.5 c 0.75807,-0.14648 1.54321,-0.21875 2.34375,-0.21875 6.7558,-4e-5 12.24998,5.46295 12.25,12.21875 4e-5,6.75576 -5.49424,12.24998 -12.25,12.25 -0.80054,0 -1.58568,-0.0715 -2.34375,-0.21875 l 0,12.46875 c 0.75807,-0.14725 1.54321,-0.21875 2.34375,-0.21875 6.7558,-2e-5 12.24998,5.4942 12.25,12.25 4e-5,6.75578 -5.49424,12.24998 -12.25,12.25 -0.80054,-10e-6 -1.58568,-0.0715 -2.34375,-0.21875 l 0,12.46875 c 0.75807,-0.14648 1.54321,-0.21875 2.34375,-0.21875 6.7558,-2e-5 12.24998,5.46295 12.25,12.21875 4e-5,6.75578 -5.49424,12.24998 -12.25,12.25 -0.80054,-10e-6 -1.58568,-0.0715 -2.34375,-0.21875 l 0,14.65625 c 0.69943,-0.12476 1.42079,-0.1875 2.15625,-0.1875 6.75577,-5e-5 12.24998,5.4942 12.25,12.25 0,1.02278 -0.13783,1.98724 -0.375,2.9375 l 12.78125,0 c -0.23667,-0.94933 -0.375,-1.91582 -0.375,-2.9375 -1e-5,-6.75581 5.4942,-12.25002 12.25,-12.25 6.75579,-5e-5 12.21873,5.4942 12.21875,12.25 0,1.02278 -0.13905,1.98724 -0.375,2.9375 l 12.8125,0 c -0.23546,-0.94933 -0.375,-1.91582 -0.375,-2.9375 2e-5,-6.75581 5.46295,-12.25002 12.21875,-12.25 6.75576,-5e-5 12.24998,5.4942 12.25,12.25 0,1.02278 -0.13783,1.98724 -0.375,2.9375 l 12.78125,0 c -0.23667,-0.94933 -0.375,-1.91582 -0.375,-2.9375 10e-6,-6.75581 5.4942,-12.25002 12.25,-12.25 6.7558,-5e-5 12.24998,5.4942 12.25,12.25 0,1.02278 -0.13783,1.98724 -0.375,2.9375 l 12.78125,0 c -0.23667,-0.94933 -0.375,-1.91582 -0.375,-2.9375 3e-5,-6.75581 5.4942,-12.25002 12.25,-12.25 6.75576,-5e-5 12.21873,5.4942 12.21875,12.25 0,1.02278 -0.13905,1.98724 -0.375,2.9375 l 12.78125,0 c -0.23667,-0.94933 -0.375,-1.91582 -0.375,-2.9375 0,-6.75581 5.4942,-12.25002 12.25,-12.25 6.75579,-5e-5 12.24998,5.4942 12.25,12.25 1e-5,1.02278 -0.13783,1.98724 -0.375,2.9375 l 12.78125,0 c -0.23667,-0.94933 -0.375,-1.91582 -0.375,-2.9375 -10e-6,-6.75581 5.4942,-12.25002 12.25,-12.25 6.75578,-5e-5 12.21873,5.4942 12.21875,12.25 0,1.02278 -0.13905,1.98724 -0.375,2.9375 l 12.8125,0 c -0.23546,-0.94933 -0.375,-1.91582 -0.375,-2.9375 3e-5,-6.75581 5.46295,-12.25002 12.21875,-12.25 6.75576,-5e-5 12.24998,5.4942 12.25,12.25 0,1.02278 -0.13783,1.98724 -0.375,2.9375 l 12.78125,0 c -0.23667,-0.94933 -0.375,-1.91582 -0.375,-2.9375 3e-5,-6.75581 5.4942,-12.25002 12.25,-12.25 6.75576,-5e-5 12.24998,5.4942 12.25,12.25 0,1.02278 -0.13783,1.98724 -0.375,2.9375 l 12.78125,0 c -0.23546,-0.94933 -0.375,-1.91582 -0.375,-2.9375 0,-6.75581 5.46295,-12.25002 12.21875,-12.25 6.75579,-5e-5 12.24998,5.4942 12.25,12.25 1e-5,1.02278 -0.13783,1.98724 -0.375,2.9375 l 12.78125,0 c -0.23667,-0.94933 -0.375,-1.91582 -0.375,-2.9375 -10e-6,-6.75581 5.4942,-12.25002 12.25,-12.25 6.75578,-5e-5 12.25001,5.4942 12.25,12.25 0,1.02278 -0.13783,1.98724 -0.375,2.9375 l 12.78125,0 c -0.23667,-0.94933 -0.375,-1.91582 -0.375,-2.9375 0,-6.75581 5.49423,-12.25002 12.25,-12.25 6.75579,-5e-5 12.21876,5.4942 12.21875,12.25 0,1.02278 -0.13905,1.98724 -0.375,2.9375 l 12.8125,0 c -0.23546,-0.94933 -0.375,-1.91582 -0.375,-2.9375 0,-6.75581 5.46298,-12.25002 12.21875,-12.25 6.75579,-5e-5 12.25001,5.4942 12.25,12.25 0,1.02278 -0.13783,1.98724 -0.375,2.9375 l 12.78125,0 c -0.23667,-0.94933 -0.375,-1.91582 -0.375,-2.9375 2e-5,-6.75581 5.49423,-12.25002 12.25,-12.25 6.75578,-5e-5 12.21876,5.4942 12.21875,12.25 0,1.02278 -0.13905,1.98724 -0.375,2.9375 l 12.8125,0 c -0.23546,-0.94933 -0.375,-1.91582 -0.375,-2.9375 0,-6.75581 5.46298,-12.25002 12.21875,-12.25 6.7558,-5e-5 12.25001,5.4942 12.25,12.25 0,1.02278 -0.13783,1.98724 -0.375,2.9375 l 12.78125,0 c -0.23667,-0.94933 -0.375,-1.91582 -0.375,-2.9375 2e-5,-6.75581 5.49423,-12.25002 12.25,-12.25 6.75579,-5e-5 12.25001,5.4942 12.25,12.25 0,1.02278 -0.13783,1.98724 -0.375,2.9375 l 12.78125,0 c -0.23667,-0.94933 -0.375,-1.91582 -0.375,-2.9375 0,-6.75581 5.49423,-12.25002 12.25,-12.25 6.75578,-5e-5 12.21876,5.4942 12.21875,12.25 0,1.02278 -0.13905,1.98724 -0.375,2.9375 l 12.78125,0 c -0.23667,-0.94933 -0.375,-1.91582 -0.375,-2.9375 0,-6.75581 5.49423,-12.25002 12.25,-12.25 6.75577,-5e-5 12.25001,5.4942 12.25,12.25 0,1.02278 -0.13783,1.98724 -0.375,2.9375 l 12.78125,0 c -0.23667,-0.94933 -0.375,-1.91582 -0.375,-2.9375 -2e-5,-6.75581 5.49423,-12.25002 12.25,-12.25 6.75577,-5e-5 12.21876,5.4942 12.21875,12.25 0,1.02278 -0.13905,1.98724 -0.375,2.9375 l 14.78125,0 c -0.23553,-0.94868 -0.375,-1.9158 -0.375,-2.9375 0,-6.39673 4.89891,-11.64694 11.15625,-12.1875 0.34972,-0.0356 0.70474,-0.0571 1.0625,-0.0625 0.0316,-2e-5 0.0622,-2.6e-4 0.0937,0 0.0315,-2.6e-4 0.0622,-2e-5 0.0937,0 0.40118,0 0.79611,0.0246 1.1875,0.0625 l 0,-12.1875 c -0.45276,0.0509 -0.90883,0.0937 -1.375,0.0937 -6.7558,-2e-5 -12.21874,-5.49424 -12.21875,-12.25 0,-6.75582 5.46298,-12.21877 12.21875,-12.21875 0.46617,0 0.92224,0.0431 1.375,0.0937 l 0,-12.25 c -0.45276,0.0507 -0.90883,0.0937 -1.375,0.0937 -6.7558,0 -12.21874,-5.46299 -12.21875,-12.21875 0,-6.7558 5.46298,-12.25002 12.21875,-12.25 0.46617,0 0.92224,0.0428 1.375,0.0937 l 0,-12.21875 c -0.45276,0.0509 -0.90883,0.0937 -1.375,0.0937 -6.7558,-2e-5 -12.21874,-5.49424 -12.21875,-12.25 0,-6.75582 5.46298,-12.21877 12.21875,-12.21875 0.46617,0 0.92224,0.0431 1.375,0.0937 l 0,-12.25 c -0.45276,0.0507 -0.90883,0.0937 -1.375,0.0937 -6.7558,-5e-5 -12.21874,-5.46299 -12.21875,-12.21875 0,-6.75579 5.46298,-12.25002 12.21875,-12.25 0.46617,0 0.92224,0.0428 1.375,0.0937 l 0,-12.21875 c -0.45276,0.0509 -0.90883,0.0937 -1.375,0.0937 -6.7558,-4e-5 -12.21874,-5.49424 -12.21875,-12.25 0,-6.75578 5.46298,-12.24999 12.21875,-12.25 0.46617,0 0.92224,0.0428 1.375,0.0937 l 0,-12.21875 c -0.45276,0.0507 -0.90883,0.0937 -1.375,0.0937 -6.7558,1e-5 -12.21874,-5.46296 -12.21875,-12.21875 0,-6.75576 5.46298,-12.24999 12.21875,-12.25 0.46617,0 0.92224,0.0428 1.375,0.0937 l 0,-12.21875 c -0.45276,0.0509 -0.90883,0.0937 -1.375,0.0937 -6.7558,10e-6 -12.21874,-5.49421 -12.21875,-12.25 0,-6.75576 5.46298,-12.24999 12.21875,-12.25 0.46617,0 0.92224,0.0428 1.375,0.0937 l 0,-12.21875 c -0.45276,0.0509 -0.90883,0.0937 -1.375,0.0937 -6.7558,1e-5 -12.21874,-5.49421 -12.21875,-12.25 0,-6.75576 5.46298,-12.21874 12.21875,-12.21875 0.46617,0 0.92224,0.0431 1.375,0.0937 l 0,-12.25 c -0.45276,0.0507 -0.90883,0.0937 -1.375,0.0937 -6.7558,2e-5 -12.21874,-5.46296 -12.21875,-12.21875 0,-6.75578 5.46298,-12.24999 12.21875,-12.25 0.46617,0 0.92224,0.0428 1.375,0.0937 l 0,-12.21875 c -0.45276,0.0509 -0.90883,0.0937 -1.375,0.0937 -6.7558,1e-5 -12.21874,-5.49421 -12.21875,-12.25 0,-6.75576 5.46298,-12.21874 12.21875,-12.21875 0.46617,0 0.92224,0.0431 1.375,0.0937 l 0,-12.25 c -0.45276,0.0507 -0.90883,0.0937 -1.375,0.0937 -6.7558,10e-6 -12.21874,-5.46296 -12.21875,-12.21875 0,-6.75576 5.46298,-12.24999 12.21875,-12.25 0.46617,0 0.92224,0.0428 1.375,0.0937 l 0,-12.21875 c -0.45276,0.0509 -0.90883,0.0937 -1.375,0.0937 -6.7558,2e-5 -12.21874,-5.49421 -12.21875,-12.25 0,-6.75578 5.46298,-12.24999 12.21875,-12.25 0.46617,0 0.92224,0.0428 1.375,0.0937 l 0,-12.21875 c -0.45276,0.0509 -0.90883,0.0937 -1.375,0.0937 -6.7558,1e-5 -12.21874,-5.49421 -12.21875,-12.25 0,-6.75577 5.46298,-12.21874 12.21875,-12.21875 0.46617,0 0.92224,0.0431 1.375,0.0937 l 0,-12.25 c -0.45276,0.0507 -0.90883,0.0937 -1.375,0.0937 -6.7558,0 -12.21874,-5.46296 -12.21875,-12.21875 0,-6.75576 5.46298,-12.24999 12.21875,-12.25 0.46617,0 0.92224,0.0428 1.375,0.0937 l 0,-12.21875 c -0.45276,0.0509 -0.90883,0.0937 -1.375,0.0937 -6.7558,1e-5 -12.21874,-5.49421 -12.21875,-12.25 0,-6.75577 5.46298,-12.21874 12.21875,-12.21875 0.46617,0 0.92224,0.0431 1.375,0.0937 l 0,-12.25 c -0.45276,0.0506 -0.90883,0.0937 -1.375,0.0937 -6.7558,1e-5 -12.21874,-5.46297 -12.21875,-12.21875 0,-6.75577 5.46298,-12.25 12.21875,-12.25 0.46617,0 0.92224,0.0428 1.375,0.0937 l 0,-12.21875 c -0.45276,0.0509 -0.90883,0.0937 -1.375,0.0937 -6.7558,0 -12.21874,-5.49422 -12.21875,-12.25 0,-6.75578 5.46298,-12.25 12.21875,-12.25 0.46617,0 0.92224,0.0428 1.375,0.0937 l 0,-14.40625 z"
       inkscape:export-filename="/Users/scsibug/Documents/WorkingRepository/fermata-site/img/stamp.png"
       inkscape:export-xdpi="12.157598"
       inkscape:export-ydpi="12.157598" />
    <path
       inkscape:connector-curvature="0"
       style="font-size:111.63400269px;font-style:normal;font-weight:normal;opacity:0.4;fill:#000000;fill-opacity:1;stroke:none;filter:url(#filter6368);font-family:Bitstream Vera Sans"
       id="text6631"
       d="m 153.70766,61.36855 43.22559,0 0,9.26651 -33.14143,0 0,19.95027 c 1.5989,-0.54503 3.19783,-0.95385 4.79678,-1.22645 1.5989,-0.27249 3.19783,-0.40876 4.79679,-0.40881 9.08478,5e-5 16.27995,2.48929 21.58554,7.46772 5.30548,4.97852 7.95824,11.71946 7.9583,20.22282 -6e-5,8.75778 -2.7255,15.56231 -8.17634,20.41359 -5.45094,4.8513 -13.13669,7.27694 -23.05728,7.27695 -3.41592,-1e-5 -6.8954,-0.29072 -10.43846,-0.87215 -3.5431,-0.58143 -7.20428,-1.45357 -10.98355,-2.61643 l 0,-11.06531 c 3.27052,1.78064 6.65007,3.10702 10.13866,3.97915 3.48855,0.87215 7.17699,1.30822 11.06532,1.30822 6.28666,0 11.26514,-1.65343 14.93544,-4.96032 3.67022,-3.30686 5.50536,-7.79475 5.50541,-13.4637 -5e-5,-5.6689 -1.83519,-10.1568 -5.50541,-13.46371 -3.6703,-3.30683 -8.64878,-4.96027 -14.93544,-4.96031 -2.94351,4e-5 -5.87791,0.32709 -8.8032,0.98116 -2.92533,0.65415 -5.91423,1.67165 -8.96672,3.0525 l 0,-40.8817 z m 71.07965,0 43.22559,0 0,9.26651 -33.14143,0 0,19.95027 c 1.5989,-0.54503 3.19783,-0.95385 4.79678,-1.22645 1.5989,-0.27249 3.19783,-0.40876 4.79679,-0.40881 9.08478,5e-5 16.27995,2.48929 21.58554,7.46772 5.30548,4.97852 7.95824,11.71946 7.9583,20.22282 -6e-5,8.75778 -2.7255,15.56231 -8.17634,20.41359 -5.45094,4.8513 -13.13669,7.27694 -23.05728,7.27695 -3.41592,-1e-5 -6.8954,-0.29072 -10.43846,-0.87215 -3.5431,-0.58143 -7.20428,-1.45357 -10.98355,-2.61643 l 0,-11.06531 c 3.27053,1.78064 6.65008,3.10702 10.13866,3.97915 3.48855,0.87215 7.17699,1.30822 11.06532,1.30822 6.28666,0 11.26514,-1.65343 14.93545,-4.96032 3.67022,-3.30686 5.50535,-7.79475 5.5054,-13.4637 -5e-5,-5.6689 -1.83518,-10.1568 -5.5054,-13.46371 -3.67031,-3.30683 -8.64879,-4.96027 -14.93545,-4.96031 -2.94351,4e-5 -5.87791,0.32709 -8.8032,0.98116 -2.92533,0.65415 -5.91423,1.67165 -8.96672,3.0525 l 0,-40.8817 z"
       inkscape:export-filename="/Users/scsibug/Documents/WorkingRepository/fermata-site/img/stamp.png"
       inkscape:export-xdpi="12.157598"
       inkscape:export-ydpi="12.157598" />
    <text
       xml:space="preserve"
       style="font-size:72px;font-style:normal;font-variant:normal;font-weight:normal;font-stretch:normal;text-align:start;line-height:125%;letter-spacing:0px;word-spacing:0px;writing-mode:lr-tb;text-anchor:start;fill:#a0a0a0;fill-opacity:1;stroke:none;filter:url(#filter6368);font-family:Sans;-inkscape-font-specification:Sans"
       x="455.68466"
       y="109.33307"
       id="text6835"
       sodipodi:linespacing="125%"><tspan
         sodipodi:role="line"
         id="tspan6837"
         x="455.68466"
         y="109.33307">Fermata</tspan></text>
    <path
       inkscape:connector-curvature="0"
       d="m 521.19076,512.21699 c 0,32.60268 -26.4264,59.03235 -59.0249,59.03235 -32.5984,0 -59.0249,-26.42967 -59.0249,-59.03235 0,-32.60266 26.4265,-59.03233 59.0249,-59.03233 32.5985,0 59.0249,26.42967 59.0249,59.03233 l 0,0 z"
       style="fill:#a0a0a0;fill-opacity:1;fill-rule:evenodd;stroke:none"
       id="path1884" />
    <path
       inkscape:connector-curvature="0"
       d="m 170.14823,566.58893 c 24.85263,-167.77614 142.90223,-316.91045 292.01763,-316.91045 149.1155,0 267.165,149.13431 292.0177,316.91045 1.2426,6.21394 -29.8231,6.21394 -31.0657,0 -31.0657,-118.0647 -111.8365,-229.91544 -260.952,-229.91544 -149.1154,0 -229.8862,111.85074 -260.9519,229.91544 -1.2427,6.21394 -32.30838,6.21394 -31.06573,0 z"
       style="fill:#a0a0a0;fill-opacity:1;stroke:none"
       id="path2772" />
  </g>
</svg>
